<svg xmlns="http://www.w3.org/2000/svg" xmlns:xlink="http://www.w3.org/1999/xlink" width="480" zoomAndPan="magnify" viewBox="181 237 480 122" height="122" preserveAspectRatio="xMidYMid meet" version="1.0"><defs><clipPath id="b649c947a1"><path d="M 0.296875 0.238281 L 101.488281 0.238281 L 101.488281 120.796875 L 0.296875 120.796875 Z M 0.296875 0.238281 " clip-rule="nonzero"/></clipPath><clipPath id="7f89f59509"><path d="M 95.109375 82.34375 L 31.832031 45.8125 L 31.832031 24.394531 L 69.949219 46.402344 L 69.949219 59.085938 L 76.328125 62.683594 L 76.328125 42.726562 L 54.078125 29.871094 L 54.078125 11.292969 L 95.097656 34.980469 Z M 69.949219 97.925781 L 31.832031 75.917969 L 31.832031 60.496094 L 25.445312 57.167969 L 25.445312 79.597656 L 47.703125 92.449219 L 47.703125 109.722656 L 6.683594 86.023438 L 6.683594 38.65625 L 69.949219 75.1875 Z M 101.484375 31.289062 L 47.703125 0.238281 L 47.703125 26.195312 L 25.453125 13.339844 L 25.453125 42.125 L 0.296875 27.601562 L 0.296875 89.710938 L 54.078125 120.765625 L 54.078125 96.128906 L 76.328125 108.972656 L 76.328125 78.875 L 101.484375 93.398438 Z M 101.484375 31.289062 " clip-rule="nonzero"/></clipPath><clipPath id="6fd9c62060"><path d="M 0.296875 0.238281 L 101.488281 0.238281 L 101.488281 120.777344 L 0.296875 120.777344 Z M 0.296875 0.238281 " clip-rule="nonzero"/></clipPath><clipPath id="80e61a3874"><path d="M 95.109375 82.34375 L 31.832031 45.8125 L 31.832031 24.394531 L 69.949219 46.402344 L 69.949219 59.085938 L 76.328125 62.683594 L 76.328125 42.726562 L 54.078125 29.871094 L 54.078125 11.292969 L 95.097656 34.980469 Z M 69.949219 97.925781 L 31.832031 75.917969 L 31.832031 60.496094 L 25.445312 57.167969 L 25.445312 79.597656 L 47.703125 92.449219 L 47.703125 109.722656 L 6.683594 86.023438 L 6.683594 38.65625 L 69.949219 75.1875 Z M 101.484375 31.289062 L 47.703125 0.238281 L 47.703125 26.195312 L 25.453125 13.339844 L 25.453125 42.125 L 0.296875 27.601562 L 0.296875 89.710938 L 54.078125 120.765625 L 54.078125 96.128906 L 76.328125 108.972656 L 76.328125 78.875 L 101.484375 93.398438 Z M 101.484375 31.289062 " clip-rule="nonzero"/></clipPath><clipPath id="48aa2a2436"><rect x="0" width="102" y="0" height="121"/></clipPath><clipPath id="88163920cd"><path d="M 131.464844 27.257812 L 174.511719 27.257812 L 174.511719 94.6875 L 131.464844 94.6875 Z M 131.464844 27.257812 " clip-rule="nonzero"/></clipPath><clipPath id="88ee7c6699"><path d="M 138.542969 37.734375 L 162.058594 37.734375 L 162.058594 71.925781 C 162.058594 80.054688 158.632812 84.109375 151.765625 84.109375 C 149.1875 84.109375 146.808594 83.480469 144.640625 82.222656 C 142.46875 80.960938 140.460938 79.074219 138.640625 76.554688 L 131.644531 84.96875 C 133.914062 88.058594 136.824219 90.417969 140.382812 92.058594 C 143.9375 93.695312 147.828125 94.515625 152.046875 94.515625 C 159.28125 94.515625 164.808594 92.597656 168.625 88.757812 C 172.445312 84.921875 174.34375 79.09375 174.34375 71.289062 L 174.34375 27.441406 L 138.542969 27.441406 Z M 138.542969 37.734375 " clip-rule="nonzero"/></clipPath><clipPath id="08e3e65ac3"><path d="M 0.464844 0.261719 L 43.363281 0.261719 L 43.363281 67.640625 L 0.464844 67.640625 Z M 0.464844 0.261719 " clip-rule="nonzero"/></clipPath><clipPath id="a936d6cfb7"><path d="M 7.542969 10.734375 L 31.058594 10.734375 L 31.058594 44.925781 C 31.058594 53.054688 27.632812 57.109375 20.765625 57.109375 C 18.1875 57.109375 15.808594 56.480469 13.640625 55.222656 C 11.46875 53.960938 9.460938 52.074219 7.640625 49.554688 L 0.644531 57.96875 C 2.914062 61.058594 5.824219 63.417969 9.382812 65.058594 C 12.9375 66.695312 16.828125 67.515625 21.046875 67.515625 C 28.28125 67.515625 33.808594 65.597656 37.625 61.757812 C 41.445312 57.921875 43.34375 52.09375 43.34375 44.289062 L 43.34375 0.441406 L 7.542969 0.441406 Z M 7.542969 10.734375 " clip-rule="nonzero"/></clipPath><clipPath id="b2b7df38ec"><rect x="0" width="44" y="0" height="68"/></clipPath><clipPath id="0c06abf522"><path d="M 180.53125 27.257812 L 252.476562 27.257812 L 252.476562 93.785156 L 180.53125 93.785156 Z M 180.53125 27.257812 " clip-rule="nonzero"/></clipPath><clipPath id="4454f55e67"><path d="M 204.089844 68.628906 L 216.472656 39.683594 L 228.894531 68.617188 Z M 210.515625 27.441406 L 180.761719 93.566406 L 193.421875 93.566406 L 199.96875 78.265625 L 233.042969 78.265625 L 239.621094 93.566406 L 252.464844 93.566406 L 222.609375 27.441406 Z M 210.515625 27.441406 " clip-rule="nonzero"/></clipPath><clipPath id="4429738d24"><path d="M 0.597656 0.261719 L 72.476562 0.261719 L 72.476562 66.679688 L 0.597656 66.679688 Z M 0.597656 0.261719 " clip-rule="nonzero"/></clipPath><clipPath id="46cd3fdb32"><path d="M 24.089844 41.628906 L 36.472656 12.683594 L 48.894531 41.617188 Z M 30.515625 0.441406 L 0.761719 66.566406 L 13.421875 66.566406 L 19.96875 51.265625 L 53.042969 51.265625 L 59.621094 66.566406 L 72.464844 66.566406 L 42.609375 0.441406 Z M 30.515625 0.441406 " clip-rule="nonzero"/></clipPath><clipPath id="89a4d98af5"><rect x="0" width="73" y="0" height="67"/></clipPath><clipPath id="e74b611e31"><path d="M 260.601562 27.257812 L 317.496094 27.257812 L 317.496094 93.785156 L 260.601562 93.785156 Z M 260.601562 27.257812 " clip-rule="nonzero"/></clipPath><clipPath id="5cd0561f11"><path d="M 299.738281 41.234375 C 302.476562 43.5 303.847656 46.738281 303.847656 50.957031 C 303.847656 55.117188 302.476562 58.355469 299.738281 60.683594 C 297 63.011719 292.921875 64.179688 287.503906 64.179688 L 273.144531 64.179688 L 273.144531 37.835938 L 287.496094 37.835938 C 292.914062 37.835938 296.992188 38.964844 299.730469 41.234375 M 303.128906 71.507812 C 307.316406 69.648438 310.542969 66.96875 312.8125 63.480469 C 315.082031 59.992188 316.210938 55.816406 316.210938 50.96875 C 316.210938 43.601562 313.710938 37.835938 308.703125 33.675781 C 303.695312 29.519531 296.789062 27.441406 287.976562 27.441406 L 260.867188 27.441406 L 260.867188 93.566406 L 273.152344 93.566406 L 273.152344 74.296875 L 288.074219 74.296875 C 288.953125 74.296875 289.8125 74.265625 290.652344 74.226562 L 304.125 93.566406 L 317.351562 93.566406 L 302.167969 71.898438 C 302.488281 71.765625 302.816406 71.648438 303.136719 71.507812 " clip-rule="nonzero"/></clipPath><clipPath id="be239abbab"><path d="M 0.6875 0.261719 L 57.496094 0.261719 L 57.496094 66.679688 L 0.6875 66.679688 Z M 0.6875 0.261719 " clip-rule="nonzero"/></clipPath><clipPath id="beb20b7ac3"><path d="M 39.738281 14.234375 C 42.476562 16.5 43.847656 19.738281 43.847656 23.957031 C 43.847656 28.117188 42.476562 31.355469 39.738281 33.683594 C 37 36.011719 32.921875 37.179688 27.503906 37.179688 L 13.144531 37.179688 L 13.144531 10.835938 L 27.496094 10.835938 C 32.914062 10.835938 36.992188 11.964844 39.730469 14.234375 M 43.128906 44.507812 C 47.316406 42.648438 50.542969 39.96875 52.8125 36.480469 C 55.082031 32.992188 56.210938 28.816406 56.210938 23.96875 C 56.210938 16.601562 53.710938 10.835938 48.703125 6.675781 C 43.695312 2.519531 36.789062 0.441406 27.976562 0.441406 L 0.867188 0.441406 L 0.867188 66.566406 L 13.152344 66.566406 L 13.152344 47.296875 L 28.074219 47.296875 C 28.953125 47.296875 29.8125 47.265625 30.652344 47.226562 L 44.125 66.566406 L 57.351562 66.566406 L 42.167969 44.898438 C 42.488281 44.765625 42.816406 44.648438 43.136719 44.507812 " clip-rule="nonzero"/></clipPath><clipPath id="d7b8fd6baa"><rect x="0" width="58" y="0" height="67"/></clipPath><clipPath id="96e6c762f0"><path d="M 329.914062 27.441406 L 388.898438 27.441406 L 388.898438 93.769531 L 329.914062 93.769531 Z M 329.914062 27.441406 " clip-rule="nonzero"/></clipPath><clipPath id="abb94afd81"><path d="M 372.613281 81.660156 C 370.15625 83.171875 366.628906 83.929688 362.03125 83.929688 L 342.199219 83.929688 L 342.199219 64.851562 L 362.03125 64.851562 C 366.628906 64.851562 370.15625 65.621094 372.613281 67.167969 C 375.074219 68.71875 376.300781 71.117188 376.300781 74.394531 C 376.300781 77.734375 375.074219 80.164062 372.613281 81.671875 M 359.582031 37.074219 C 363.859375 37.074219 367.15625 37.835938 369.457031 39.34375 C 371.753906 40.851562 372.894531 43.152344 372.894531 46.238281 C 372.894531 49.257812 371.746094 51.527344 369.445312 53.046875 C 367.148438 54.566406 363.859375 55.316406 359.570312 55.316406 L 342.199219 55.316406 L 342.199219 37.074219 Z M 379.03125 60.074219 C 378.269531 59.722656 377.480469 59.421875 376.671875 59.164062 C 379.199219 57.824219 381.257812 55.996094 382.808594 53.644531 C 384.449219 51.15625 385.265625 48.148438 385.265625 44.621094 C 385.265625 39.394531 383.1875 35.226562 379.03125 32.105469 C 374.871094 28.988281 368.835938 27.441406 360.898438 27.441406 L 329.914062 27.441406 L 329.914062 93.566406 L 362.789062 93.566406 C 371.355469 93.566406 377.8125 91.996094 382.160156 88.847656 C 386.507812 85.699219 388.675781 81.292969 388.675781 75.625 C 388.675781 71.785156 387.804688 68.578125 386.078125 65.988281 C 384.347656 63.402344 382 61.441406 379.039062 60.082031 " clip-rule="nonzero"/></clipPath><clipPath id="c1066ff335"><path d="M 0.914062 0.441406 L 59.734375 0.441406 L 59.734375 66.679688 L 0.914062 66.679688 Z M 0.914062 0.441406 " clip-rule="nonzero"/></clipPath><clipPath id="895010bf4f"><path d="M 43.613281 54.660156 C 41.15625 56.171875 37.628906 56.929688 33.03125 56.929688 L 13.199219 56.929688 L 13.199219 37.851562 L 33.03125 37.851562 C 37.628906 37.851562 41.15625 38.621094 43.613281 40.167969 C 46.074219 41.71875 47.300781 44.117188 47.300781 47.394531 C 47.300781 50.734375 46.074219 53.164062 43.613281 54.671875 M 30.582031 10.074219 C 34.859375 10.074219 38.15625 10.835938 40.457031 12.34375 C 42.753906 13.851562 43.894531 16.152344 43.894531 19.238281 C 43.894531 22.257812 42.746094 24.527344 40.445312 26.046875 C 38.148438 27.566406 34.859375 28.316406 30.570312 28.316406 L 13.199219 28.316406 L 13.199219 10.074219 Z M 50.03125 33.074219 C 49.269531 32.722656 48.480469 32.421875 47.671875 32.164062 C 50.199219 30.824219 52.257812 28.996094 53.808594 26.644531 C 55.449219 24.15625 56.265625 21.148438 56.265625 17.621094 C 56.265625 12.394531 54.1875 8.226562 50.03125 5.105469 C 45.871094 1.988281 39.835938 0.441406 31.898438 0.441406 L 0.914062 0.441406 L 0.914062 66.566406 L 33.789062 66.566406 C 42.355469 66.566406 48.8125 64.996094 53.160156 61.847656 C 57.507812 58.699219 59.675781 54.292969 59.675781 48.625 C 59.675781 44.785156 58.804688 41.578125 57.078125 38.988281 C 55.347656 36.402344 53 34.441406 50.039062 33.082031 " clip-rule="nonzero"/></clipPath><clipPath id="b9cb5f4c8b"><rect x="0" width="60" y="0" height="67"/></clipPath><clipPath id="0d84c8290b"><path d="M 401.796875 27.441406 L 414.082031 27.441406 L 414.082031 93.5625 L 401.796875 93.5625 Z M 401.796875 27.441406 " clip-rule="nonzero"/></clipPath><clipPath id="0116fd5b50"><path d="M 0.796875 0.441406 L 13.082031 0.441406 L 13.082031 66.5625 L 0.796875 66.5625 Z M 0.796875 0.441406 " clip-rule="nonzero"/></clipPath><clipPath id="0a1850fac1"><rect x="0" width="14" y="0" height="67"/></clipPath><clipPath id="40568a3502"><path d="M 426.359375 26.496094 L 479.367188 26.496094 L 479.367188 94.5625 L 426.359375 94.5625 Z M 426.359375 26.496094 " clip-rule="nonzero"/></clipPath><clipPath id="333a635ffe"><path d="M 477.03125 66.265625 C 475.613281 63.996094 473.753906 62.207031 471.453125 60.878906 C 469.15625 59.546875 466.605469 58.480469 463.796875 57.667969 C 460.988281 56.859375 458.179688 56.109375 455.34375 55.449219 C 452.503906 54.789062 449.945312 54.109375 447.648438 53.421875 C 445.347656 52.730469 443.488281 51.773438 442.070312 50.542969 C 440.648438 49.3125 439.941406 47.695312 439.941406 45.675781 C 439.941406 43.976562 440.429688 42.46875 441.410156 41.136719 C 442.390625 39.808594 443.929688 38.75 446.039062 37.929688 C 448.144531 37.109375 450.90625 36.699219 454.304688 36.699219 C 457.203125 36.699219 460.21875 37.128906 463.367188 37.980469 C 466.515625 38.828125 469.574219 40.136719 472.535156 41.898438 L 476.410156 32.351562 C 473.511719 30.464844 470.113281 29.015625 466.207031 28.003906 C 462.300781 26.996094 458.382812 26.496094 454.414062 26.496094 C 448.367188 26.496094 443.378906 27.394531 439.441406 29.183594 C 435.503906 30.972656 432.574219 33.371094 430.65625 36.371094 C 428.738281 39.367188 427.777344 42.648438 427.777344 46.246094 C 427.777344 49.773438 428.496094 52.671875 429.945312 54.941406 C 431.394531 57.210938 433.265625 59.019531 435.5625 60.367188 C 437.863281 61.71875 440.410156 62.828125 443.21875 63.675781 C 446.027344 64.527344 448.824219 65.265625 451.625 65.894531 C 454.421875 66.523438 456.972656 67.203125 459.269531 67.921875 C 461.570312 68.644531 463.4375 69.621094 464.886719 70.851562 C 466.335938 72.082031 467.058594 73.699219 467.058594 75.71875 C 467.058594 77.359375 466.546875 78.816406 465.546875 80.105469 C 464.546875 81.398438 462.96875 82.425781 460.820312 83.175781 C 458.671875 83.925781 455.871094 84.316406 452.414062 84.316406 C 448.316406 84.316406 444.320312 83.625 440.421875 82.234375 C 436.523438 80.847656 433.246094 79.117188 430.59375 77.039062 L 426.359375 86.574219 C 429.125 88.902344 432.875 90.8125 437.601562 92.292969 C 442.328125 93.769531 447.265625 94.511719 452.433594 94.511719 C 458.480469 94.511719 463.488281 93.609375 467.457031 91.820312 C 471.425781 90.03125 474.363281 87.632812 476.292969 84.644531 C 478.222656 81.65625 479.171875 78.398438 479.171875 74.871094 C 479.171875 71.410156 478.460938 68.542969 477.042969 66.273438 " clip-rule="nonzero"/></clipPath><clipPath id="d851efafa2"><path d="M 0.359375 0.496094 L 53.367188 0.496094 L 53.367188 68.5625 L 0.359375 68.5625 Z M 0.359375 0.496094 " clip-rule="nonzero"/></clipPath><clipPath id="c6a9074c20"><path d="M 51.03125 40.265625 C 49.613281 37.996094 47.753906 36.207031 45.453125 34.878906 C 43.15625 33.546875 40.605469 32.480469 37.796875 31.667969 C 34.988281 30.859375 32.179688 30.109375 29.34375 29.449219 C 26.503906 28.789062 23.945312 28.109375 21.648438 27.421875 C 19.347656 26.730469 17.488281 25.773438 16.070312 24.542969 C 14.648438 23.3125 13.941406 21.695312 13.941406 19.675781 C 13.941406 17.976562 14.429688 16.46875 15.410156 15.136719 C 16.390625 13.808594 17.929688 12.75 20.039062 11.929688 C 22.144531 11.109375 24.90625 10.699219 28.304688 10.699219 C 31.203125 10.699219 34.21875 11.128906 37.367188 11.980469 C 40.515625 12.828125 43.574219 14.136719 46.535156 15.898438 L 50.410156 6.351562 C 47.511719 4.464844 44.113281 3.015625 40.207031 2.003906 C 36.300781 0.996094 32.382812 0.496094 28.414062 0.496094 C 22.367188 0.496094 17.378906 1.394531 13.441406 3.183594 C 9.503906 4.972656 6.574219 7.371094 4.65625 10.371094 C 2.738281 13.367188 1.777344 16.648438 1.777344 20.246094 C 1.777344 23.773438 2.496094 26.671875 3.945312 28.941406 C 5.394531 31.210938 7.265625 33.019531 9.5625 34.367188 C 11.863281 35.71875 14.410156 36.828125 17.21875 37.675781 C 20.027344 38.527344 22.824219 39.265625 25.625 39.894531 C 28.421875 40.523438 30.972656 41.203125 33.269531 41.921875 C 35.570312 42.644531 37.4375 43.621094 38.886719 44.851562 C 40.335938 46.082031 41.058594 47.699219 41.058594 49.71875 C 41.058594 51.359375 40.546875 52.816406 39.546875 54.105469 C 38.546875 55.398438 36.96875 56.425781 34.820312 57.175781 C 32.671875 57.925781 29.871094 58.316406 26.414062 58.316406 C 22.316406 58.316406 18.320312 57.625 14.421875 56.234375 C 10.523438 54.847656 7.246094 53.117188 4.59375 51.039062 L 0.359375 60.574219 C 3.125 62.902344 6.875 64.8125 11.601562 66.292969 C 16.328125 67.769531 21.265625 68.511719 26.433594 68.511719 C 32.480469 68.511719 37.488281 67.609375 41.457031 65.820312 C 45.425781 64.03125 48.363281 61.632812 50.292969 58.644531 C 52.222656 55.65625 53.171875 52.398438 53.171875 48.871094 C 53.171875 45.410156 52.460938 42.542969 51.042969 40.273438 " clip-rule="nonzero"/></clipPath><clipPath id="58a6331900"><rect x="0" width="54" y="0" height="69"/></clipPath><clipPath id="eae6065749"><rect x="0" width="480" y="0" height="122"/></clipPath></defs><g transform="matrix(1, 0, 0, 1, 181, 237)"><g clip-path="url(#eae6065749)"><g clip-path="url(#b649c947a1)"><g clip-path="url(#7f89f59509)"><g><g clip-path="url(#48aa2a2436)"><g clip-path="url(#6fd9c62060)"><g clip-path="url(#80e61a3874)"><path fill="#00287a" d="M 0.296875 0.238281 L 101.488281 0.238281 L 101.488281 120.796875 L 0.296875 120.796875 Z M 0.296875 0.238281 " fill-opacity="1" fill-rule="nonzero"/></g></g></g></g></g></g><g clip-path="url(#88163920cd)"><g clip-path="url(#88ee7c6699)"><g transform="matrix(1, 0, 0, 1, 131, 27)"><g clip-path="url(#b2b7df38ec)"><g clip-path="url(#08e3e65ac3)"><g clip-path="url(#a936d6cfb7)"><rect x="-618.579" width="1455.408" fill="#00287a" y="-480.761995" height="1029.023976" fill-opacity="1"/></g></g></g></g></g></g><g clip-path="url(#0c06abf522)"><g clip-path="url(#4454f55e67)"><g transform="matrix(1, 0, 0, 1, 180, 27)"><g clip-path="url(#89a4d98af5)"><g clip-path="url(#4429738d24)"><g clip-path="url(#46cd3fdb32)"><rect x="-667.579" width="1455.408" fill="#00287a" y="-480.761995" height="1029.023976" fill-opacity="1"/></g></g></g></g></g></g><g clip-path="url(#e74b611e31)"><g clip-path="url(#5cd0561f11)"><g transform="matrix(1, 0, 0, 1, 260, 27)"><g clip-path="url(#d7b8fd6baa)"><g clip-path="url(#be239abbab)"><g clip-path="url(#beb20b7ac3)"><rect x="-747.579" width="1455.408" fill="#00287a" y="-480.761995" height="1029.023976" fill-opacity="1"/></g></g></g></g></g></g><g clip-path="url(#96e6c762f0)"><g clip-path="url(#abb94afd81)"><g transform="matrix(1, 0, 0, 1, 329, 27)"><g clip-path="url(#b9cb5f4c8b)"><g clip-path="url(#c1066ff335)"><g clip-path="url(#895010bf4f)"><path fill="#00287a" d="M 0.914062 0.441406 L 59.671875 0.441406 L 59.671875 66.539062 L 0.914062 66.539062 Z M 0.914062 0.441406 " fill-opacity="1" fill-rule="nonzero"/></g></g></g></g></g></g><g clip-path="url(#0d84c8290b)"><g transform="matrix(1, 0, 0, 1, 401, 27)"><g clip-path="url(#0a1850fac1)"><g clip-path="url(#0116fd5b50)"><path fill="#00287a" d="M 0.796875 0.441406 L 13.078125 0.441406 L 13.078125 66.539062 L 0.796875 66.539062 Z M 0.796875 0.441406 " fill-opacity="1" fill-rule="nonzero"/></g></g></g></g><g clip-path="url(#40568a3502)"><g clip-path="url(#333a635ffe)"><g transform="matrix(1, 0, 0, 1, 426, 26)"><g clip-path="url(#58a6331900)"><g clip-path="url(#d851efafa2)"><g clip-path="url(#c6a9074c20)"><path fill="#00287a" d="M 0.359375 0.496094 L 53.160156 0.496094 L 53.160156 68.5625 L 0.359375 68.5625 Z M 0.359375 0.496094 " fill-opacity="1" fill-rule="nonzero"/></g></g></g></g></g></g></g></g></svg>